<?xml version="1.0" standalone="no"?><!DOCTYPE svg PUBLIC "-//W3C//DTD SVG 1.1//EN" "http://www.w3.org/Graphics/SVG/1.1/DTD/svg11.dtd"><svg t="1618722953603" class="icon" viewBox="0 0 1024 1024" version="1.1" xmlns="http://www.w3.org/2000/svg" p-id="3313" xmlns:xlink="http://www.w3.org/1999/xlink" width="200" height="200"><defs><style type="text/css"></style></defs><path d="M728.7 843.5c-9.2-0.1-18.1-2.3-26.1-6.4L511.1 733 321.5 836.7c-27.3 14.2-59.8 4.4-74.6-21.9-4.4-8.3-6.7-17.2-6.9-26.1V327.4c0-93.4 62.1-147 170.5-147h203c108.4 0 170.6 51.4 170.6 141.1v466.6c-0.1 30.6-24.9 55.4-55.4 55.4zM511.1 684.9c7.8 0 15.6 1.9 22.7 5.8l191.1 104c3.1 1.6 11.1-0.7 11.1-6.4V321.7c0-61.8-41.2-93.2-122.6-93.2H410.5C288 228.5 288 303 288 327.5v460.8c0 0.9 0.4 2.4 1 3.6 1.7 3.1 6.2 4.4 9.9 2.5l189.3-103.6h0.1c7.2-4 15-5.9 22.8-5.9z" fill="#200E32" p-id="3314"></path><path d="M628 437.9H394.4c-13.2 0-24-10.7-24-24s10.7-24 24-24H628c13.2 0 24 10.7 24 24s-10.8 24-24 24z" fill="#200E32" opacity=".4" p-id="3315"></path></svg>