<?xml version="1.0" standalone="no"?><!DOCTYPE svg PUBLIC "-//W3C//DTD SVG 1.1//EN" "http://www.w3.org/Graphics/SVG/1.1/DTD/svg11.dtd"><svg t="1609047592785" class="icon" viewBox="0 0 1024 1024" version="1.1" xmlns="http://www.w3.org/2000/svg" p-id="4852" xmlns:xlink="http://www.w3.org/1999/xlink" width="200" height="200"><defs><style type="text/css"></style></defs><path d="M613.49 208l-64 64h-74.98l-64-64h202.98m0-64H410.51c-57.02 0-85.57 68.94-45.25 109.25l73.37 73.37c6 6 14.14 9.37 22.63 9.37h101.49c8.49 0 16.63-3.37 22.63-9.37l73.37-73.37C699.06 212.94 670.51 144 613.49 144zM512 880c-3.08 0-76.37-0.19-150.94-16.76-45.68-10.15-82.62-24.49-109.81-42.61C202.28 787.98 192 747.89 192 720c0-49.15 13.06-98.33 38.83-146.17 20.06-37.25 47.83-73.74 82.55-108.46 58.36-58.36 116.31-91.76 118.75-93.16a32.03 32.03 0 0 1 15.88-4.22h128c5.57 0 11.04 1.45 15.88 4.22 2.44 1.39 60.39 34.8 118.75 93.16 34.72 34.72 62.49 71.21 82.55 108.46C818.94 621.67 832 670.85 832 720c0 27.89-10.28 67.98-59.25 100.63-27.19 18.12-64.13 32.46-109.81 42.61C588.37 879.81 515.08 880 512 880z m-35.86-448c-12.97 0-25.63 3.94-36.32 11.3-20.57 14.16-51.61 37.56-82.27 68.4-30.04 30.21-53.84 61.56-70.76 93.19C266.36 643.07 256 681.8 256 720c0 24.09 17.55 38.57 30.75 47.37 20.59 13.73 50.26 24.96 88.19 33.39C442.73 815.83 511.32 816 512 816c0.68 0 70.13-0.24 137.9-15.43 37.7-8.45 67.18-19.68 87.62-33.38C764.84 748.88 768 731.49 768 720c0-38.2-10.36-76.93-30.79-115.11-16.92-31.62-40.73-62.98-70.76-93.19-30.66-30.84-61.71-54.24-82.27-68.4a64.013 64.013 0 0 0-36.32-11.3h-71.72z" p-id="4853"></path><path d="M608 616c0-13.25-10.75-24-24-24h-24l20.54-32.86c8.47-13.56-1.27-31.14-17.26-31.14-7.02 0-13.54 3.61-17.26 9.57L512 592l-34.02-54.43a20.358 20.358 0 0 0-17.26-9.57c-15.99 0-25.73 17.58-17.26 31.14L464 592h-24c-13.25 0-24 10.75-24 24s10.75 24 24 24h48v32h-48c-13.25 0-24 10.75-24 24s10.75 24 24 24h48v24c0 13.25 10.75 24 24 24s24-10.75 24-24v-24h48c13.25 0 24-10.75 24-24s-10.75-24-24-24h-48v-32h48c13.25 0 24-10.75 24-24z" p-id="4854"></path></svg>